<svg xmlns="http://www.w3.org/2000/svg" xmlns:xlink="http://www.w3.org/1999/xlink" width="1366" zoomAndPan="magnify" viewBox="0 0 1024.5 576" height="768" preserveAspectRatio="xMidYMid meet" version="1.0"><defs><clipPath id="2c1122c9e1"><path d="M 0 0.140625 L 1024 0.140625 L 1024 575.859375 L 0 575.859375 Z M 0 0.140625 " clip-rule="nonzero"/></clipPath><clipPath id="3da6bd6f91"><path d="M 224.25 0.140625 L 800.25 0.140625 L 800.25 575.859375 L 224.25 575.859375 Z M 224.25 0.140625 " clip-rule="nonzero"/></clipPath></defs><g clip-path="url(#2c1122c9e1)"><path fill="#ffffff" d="M 0 0.140625 L 1024.5 0.140625 L 1024.5 583.640625 L 0 583.640625 Z M 0 0.140625 " fill-opacity="1" fill-rule="nonzero"/><path fill="#ffffff" d="M 0 0.140625 L 1024.5 0.140625 L 1024.5 576.140625 L 0 576.140625 Z M 0 0.140625 " fill-opacity="1" fill-rule="nonzero"/><path fill="#ffffff" d="M 0 0.140625 L 1024.5 0.140625 L 1024.5 576.140625 L 0 576.140625 Z M 0 0.140625 " fill-opacity="1" fill-rule="nonzero"/></g><g clip-path="url(#3da6bd6f91)"><path fill="#f0a500" d="M 512.25 52.503906 C 382.113281 52.503906 276.613281 158.003906 276.613281 288.140625 C 276.613281 418.28125 382.113281 523.777344 512.25 523.777344 C 642.390625 523.777344 747.886719 418.28125 747.886719 288.140625 C 747.886719 158.003906 642.390625 52.503906 512.25 52.503906 Z M 224.25 288.140625 C 224.25 129.082031 353.191406 0.140625 512.25 0.140625 C 671.308594 0.140625 800.25 129.082031 800.25 288.140625 C 800.25 447.199219 671.308594 576.140625 512.25 576.140625 C 353.191406 576.140625 224.25 447.199219 224.25 288.140625 Z M 224.25 288.140625 " fill-opacity="1" fill-rule="evenodd"/></g><path fill="#f0a500" d="M 486.066406 200.867188 L 538.433594 200.867188 L 538.433594 462.6875 L 486.066406 462.6875 Z M 486.066406 200.867188 " fill-opacity="1" fill-rule="evenodd"/><path fill="#f0a500" d="M 486.066406 113.59375 L 538.433594 113.59375 L 538.433594 171.777344 L 486.066406 171.777344 Z M 486.066406 113.59375 " fill-opacity="1" fill-rule="evenodd"/></svg>